PathFileType	4	(X/Y/Z)	/Users/niels/Desktop/University/Third Semester/Perception and Action/Exam/Gymnastics Motion Tracking/Code for Gym Tracking/Analyzed Data/Webcam_Backflip/id8_5_baseline_Sports2D/id8_5_baseline_Sports2D_px_person00.trc
DataRate	CameraRate	NumFrames	NumMarkers	Units	OrigDataRate	OrigDataStartFrame	OrigNumFrames
29.8125	29.8125	10	22	m	29.8125	80	160
Frame#	Time	Hip			RHip			RKnee			RAnkle			RBigToe			RSmallToe			RHeel			LHip			LKnee			LAnkle			LBigToe			LSmallToe			LHeel			Neck			Head			Nose			RShoulder			RElbow			RWrist			LShoulder			LElbow			LWrist		
		X1	Y1	Z1	X2	Y2	Z2	X3	Y3	Z3	X4	Y4	Z4	X5	Y5	Z5	X6	Y6	Z6	X7	Y7	Z7	X8	Y8	Z8	X9	Y9	Z9	X10	Y10	Z10	X11	Y11	Z11	X12	Y12	Z12	X13	Y13	Z13	X14	Y14	Z14	X15	Y15	Z15	X16	Y16	Z16	X17	Y17	Z17	X18	Y18	Z18	X19	Y19	Z19	X20	Y20	Z20	X21	Y21	Z21	X22	Y22	Z22
80	2.683438155136268	0.9077754053276909	-0.5423055313853022	0.0	0.9121023966271599	-0.5435732056934306	0.0	0.9264299379966573	-0.6401495630990046	0.0	0.9123625655789919	-0.7389593953958946	0.0	0.9356047914132004	-0.7677112980861621	0.0	0.9260129819664449	-0.7692623019108881	0.0	0.9054032901873464	-0.7542102849568704	0.0	0.903844068580942	-0.5419968258863507	0.0	0.9216513018297633	-0.6384035599176029	0.0	0.9092685020461015	-0.7316514318171795	0.0	0.935786719876134	-0.758977262871928	0.0	0.9321741091109155	-0.7537199887019644	0.0	0.899283737353148	-0.7472840594185347	0.0	0.9051960150469065	-0.4129436307694728	0.0	0.9161725978230479	-0.3493481614432231	0.0	0.9264834285395505	-0.3833496115315268	0.0	0.8961893077911921	-0.4348550754251864	0.0	0.8994695379756298	-0.4933636706902423	0.0	0.9173883319850671	-0.5479094817556444	0.0	0.8961205276714579	-0.4294208473641858	0.0	0.9033835802059691	-0.48519513908096334	0.0	0.9214955505628235	-0.5429455054192506	0.0
81	2.716981132075471	0.9081951242959325	-0.5783480295181145	0.0	0.9117437282354856	-0.5797790494255533	0.0	0.9293677352274594	-0.674153542808088	0.0	0.9094839269369109	-0.770277417935796	0.0	0.93148060518657	-0.795754809656799	0.0	0.9219820762586302	-0.7968567509964226	0.0	0.9023806355120084	-0.7847015289399142	0.0	0.9053470090085652	-0.5787183544653055	0.0	0.9247349061412036	-0.673022888620247	0.0	0.9069281229915807	-0.7647686220226939	0.0	0.9337609102928078	-0.7900646588308203	0.0	0.9296119173289824	-0.7853345185201064	0.0	0.8967611353115367	-0.7786951805984698	0.0	0.906355501423118	-0.4480350880812218	0.0	0.9157677549387963	-0.3852686755250805	0.0	0.9277909569080309	-0.41761332717632743	0.0	0.8977910879079063	-0.4706059092492463	0.0	0.8998084443263843	-0.5316155475874241	0.0	0.9138045938059857	-0.5868539802528323	0.0	0.898901658844173	-0.4655515625783552	0.0	0.90377337371111	-0.5231394611023039	0.0	0.918937820554653	-0.5814806912079523	0.0
82	2.7505241090146746	0.9079156695124857	-0.6112102407555944	0.0	0.910387780527181	-0.6126543285447797	0.0	0.9322993357650301	-0.7048285430457611	0.0	0.9064745651380647	-0.7978769144887824	0.0	0.9276448348945817	-0.8205609690905534	0.0	0.9179993730275985	-0.8211187539155086	0.0	0.8993303661620018	-0.8111331259468844	0.0	0.9061966535674806	-0.6119294541425069	0.0	0.9279950488097178	-0.7039666606195809	0.0	0.9044480634000585	-0.7938092407254524	0.0	0.931986295770872	-0.8169531966205981	0.0	0.9274817879755508	-0.8127481851852971	0.0	0.8941781785032235	-0.8060076129695206	0.0	0.9075075231318459	-0.48037133674443205	0.0	0.916343684325525	-0.4185699957621949	0.0	0.9298978607180146	-0.44956566682728405	0.0	0.8992007766283511	-0.5035068607775265	0.0	0.9006015529157686	-0.5664695683330961	0.0	0.9122316419402159	-0.6214496960212521	0.0	0.9013728367419701	-0.49881152104758847	0.0	0.9037451912668013	-0.5578312318782142	0.0	0.9178182659634582	-0.6155757190541752	0.0
83	2.784067085953878	0.9071145964634073	-0.6376553779903193	0.0	0.9084427282964711	-0.6389598335847725	0.0	0.9353015364792646	-0.7288863595353517	0.0	0.9037933134278406	-0.8188115729294869	0.0	0.9248934487428395	-0.8397207023362401	0.0	0.9149649443853664	-0.8397333961280263	0.0	0.89653763154005	-0.8308480653272285	0.0	0.9064606094224963	-0.638339494501724	0.0	0.9313783325883394	-0.7279995954220094	0.0	0.9022749209760599	-0.8156799409792878	0.0	0.9309130452415205	-0.8369925756290295	0.0	0.926117843492323	-0.8331367161386665	0.0	0.8918514572037742	-0.8263597125706533	0.0	0.9086060952893499	-0.5068821269000077	0.0	0.9177677084982189	-0.44597411131015136	0.0	0.93236144972016	-0.47605472540382454	0.0	0.9002932835933031	-0.5304923967542842	0.0	0.9013003710032895	-0.5946065015741664	0.0	0.9118557313947058	-0.648959976010643	0.0	0.9033776604641586	-0.5259915151426791	0.0	0.903336215889983	-0.5859066330128065	0.0	0.9173935073607591	-0.6422861761817577	0.0
84	2.817610062893081	0.9060644837102448	-0.6550000543625233	0.0	0.906429070850359	-0.6560376693123537	0.0	0.9385725738248648	-0.7435742974841826	0.0	0.9018537955457256	-0.8307622354068168	0.0	0.9237302760758304	-0.8508624592186478	0.0	0.9135793346392916	-0.8504725257952754	0.0	0.8942902525758609	-0.8417523554976925	0.0	0.9062643174747563	-0.6553184100177262	0.0	0.9349943446460506	-0.7424798830532948	0.0	0.900795358916411	-0.8279900076179769	0.0	0.9309723024045228	-0.8479088967250309	0.0	0.9258643617336646	-0.8441997963444553	0.0	0.8900289595738275	-0.8375233859672077	0.0	0.9096399681663946	-0.5248662544628078	0.0	0.9198233696680813	-0.4646701745167286	0.0	0.9348251118319527	-0.4942314459458444	0.0	0.9010950789107861	-0.5487664501242273	0.0	0.9015213781721678	-0.6132410946421103	0.0	0.9117844332310618	-0.6670412393421009	0.0	0.9048476717418904	-0.5442503771536922	0.0	0.9026091004663492	-0.604568600276577	0.0	0.9167485409513433	-0.6591884424825991	0.0
85	2.8511530398322846	0.9050252968495471	-0.6616881173682807	0.0	0.9048200151462178	-0.6623684124022152	0.0	0.9422397441052275	-0.7473613264163691	0.0	0.9008935186857511	-0.8325691540378596	0.0	0.9241871605191815	-0.8523524331565624	0.0	0.9140690094885663	-0.8518406009750451	0.0	0.8928175033860074	-0.8428229951397063	0.0	0.9056920444655562	-0.6614093428306098	0.0	0.939000666797029	-0.7459362271932811	0.0	0.9002424343137629	-0.8295932480541305	0.0	0.9324296977085744	-0.8484044680169249	0.0	0.9269745720683227	-0.8447256032925375	0.0	0.8888606106110779	-0.8384351674492515	0.0	0.9106430474292571	-0.532613908988417	0.0	0.9223168865672496	-0.47293361025339	0.0	0.9371306026755868	-0.5022570071614249	0.0	0.9017833349388664	-0.5565313875008889	0.0	0.9011666892618141	-0.6208654657782715	0.0	0.9114109011685813	-0.6744238939264745	0.0	0.9056404402533422	-0.5517766223326905	0.0	0.9014192352811039	-0.6121403876592872	0.0	0.9151433745130659	-0.665025006966733	0.0
86	2.884696016771488	0.9041785247800949	-0.6577150979953773	0.0	0.9038967441989465	-0.6580018520425855	0.0	0.9462180513478154	-0.7403994480567659	0.0	0.9010111435614553	-0.8245974381455219	0.0	0.9261626017466218	-0.8441432570795377	0.0	0.9163733177715105	-0.8438501227083594	0.0	0.8922903268947304	-0.8344824400602427	0.0	0.904827654378541	-0.656749261946887	0.0	0.9433301654480601	-0.7385525044379431	0.0	0.9007095017846193	-0.8209824278454713	0.0	0.9353053952279626	-0.8388433064386952	0.0	0.9295080553138779	-0.8351571349951195	0.0	0.8884540122159458	-0.8295941846084762	0.0	0.9116701286859502	-0.5298780738034643	0.0	0.9250719270171285	-0.47054799675552667	0.0	0.9392558623469122	-0.4997933321563341	0.0	0.9025815025871077	-0.5535033340487356	0.0	0.9003840102678213	-0.6175215456709476	0.0	0.9105071559783279	-0.6712302401467216	0.0	0.9057484834496583	-0.5483900625826669	0.0	0.8996240272683657	-0.6085550211543905	0.0	0.912195179041633	-0.6600848276009338	0.0
87	2.918238993710691	0.9036238780460949	-0.6446721505156234	0.0	0.9037061721811301	-0.6446034476195497	0.0	0.9501694053930267	-0.7245695634542	0.0	0.9022742181578713	-0.8088392506285428	0.0	0.9296919176670639	-0.8281407550158686	0.0	0.9203595835774105	-0.8283537843871992	0.0	0.8928663338171658	-0.8186990467117906	0.0	0.9038319808559103	-0.6431027882029496	0.0	0.947514768022441	-0.7223247868939409	0.0	0.9021698307375774	-0.8044285645129452	0.0	0.9392851911092457	-0.8215857547041494	0.0	0.9332049377439726	-0.8178771502999401	0.0	0.8889325583078737	-0.8132018914330039	0.0	0.9127636829505228	-0.517961342250156	0.0	0.9278895546899351	-0.4588758636848186	0.0	0.9411887083383574	-0.4881077055747623	0.0	0.903613920146833	-0.5409944488106201	0.0	0.8994268848976567	-0.604698056549183	0.0	0.9091355682616047	-0.6589215248918127	0.0	0.9055361007015804	-0.5356646342344145	0.0	0.8974458054790282	-0.5954676091542028	0.0	0.9080228527880942	-0.646174227919955	0.0
88	2.9517819706498947	0.9033970696059369	-0.6252509508293608	0.0	0.9041056421856757	-0.6249464544681292	0.0	0.9535500336184053	-0.7030146102660962	0.0	0.9047206199582017	-0.788505577365762	0.0	0.9347303029128752	-0.8077554696481897	0.0	0.9257223859603434	-0.8086117951628699	0.0	0.894663843463279	-0.7986113059589094	0.0	0.9029067367255126	-0.6233078798708502	0.0	0.9508045787060964	-0.7006083946758498	0.0	0.9045112881194506	-0.7835222840398671	0.0	0.9437645625572475	-0.8005210972723011	0.0	0.937505759333226	-0.7967753166228224	0.0	0.8904648256126616	-0.7927378699869696	0.0	0.9139419498866896	-0.49934495454244693	0.0	0.9305883364221734	-0.44043655125768544	0.0	0.9428878580673681	-0.46968286025425326	0.0	0.9048584464081753	-0.5215391389118766	0.0	0.8985315524186194	-0.5849322171954019	0.0	0.9075442574794468	-0.6398941969702141	0.0	0.9055578682006336	-0.5163929028633286	0.0	0.8955107000648302	-0.5757470352316626	0.0	0.9034360609105345	-0.6261080926210557	0.0
89	2.985324947589098	0.9035033442030839	-0.6024767338620587	0.0	0.9048448445368532	-0.6021386460045546	0.0	0.9557362332811918	-0.6792793642046487	0.0	0.9082547895895315	-0.7670750261658956	0.0	0.9408111728105246	-0.7867837881745161	0.0	0.9318311465554181	-0.788233573632171	0.0	0.897669616469632	-0.7776279174002798	0.0	0.9022157332301487	-0.6004632775477358	0.0	0.9525508749651359	-0.6770827063724254	0.0	0.9076954647683111	-0.7619650114930464	0.0	0.9481470658031759	-0.7797107381752906	0.0	0.9418730573341837	-0.7759020818675705	0.0	0.8933276580710455	-0.7718065722167358	0.0	0.9152044859237732	-0.4770104575800607	0.0	0.9330689203839808	-0.41816707205082476	0.0	0.9443110058459832	-0.44747757358428114	0.0	0.906213974423682	-0.49821409518679843	0.0	0.8978603949925589	-0.5612063189493535	0.0	0.9060502563055727	-0.6169026178532764	0.0	0.9061770144602526	-0.493728138307636	0.0	0.8945255622040931	-0.5526408730234112	0.0	0.8997667668806061	-0.6029747915810509	0.0
